<?xml version="1.0" standalone="no"?>
<!DOCTYPE svg PUBLIC "-//W3C//DTD SVG 20010904//EN"
 "http://www.w3.org/TR/2001/REC-SVG-20010904/DTD/svg10.dtd">
<svg version="1.0" xmlns="http://www.w3.org/2000/svg"
 width="700.000000pt" height="700.000000pt" viewBox="0 0 700.000000 700.000000"
 preserveAspectRatio="xMidYMid meet">
<metadata>
Created by potrace 1.14, written by Peter Selinger 2001-2017
</metadata>
<g transform="translate(0.000000,700.000000) scale(0.100000,-0.100000)"
fill="#000000" stroke="none">
<path d="M2567 6414 c-1 -1 -30 -5 -65 -8 -65 -7 -210 -51 -272 -84 -228 -118
-399 -335 -455 -577 -22 -96 -23 -101 -24 -343 l-1 -202 -27 -11 c-87 -33
-200 -103 -268 -166 -41 -39 -130 -142 -153 -178 -47 -76 -108 -231 -119 -305
-13 -89 -18 -186 -17 -336 l0 -172 -55 -23 c-214 -87 -405 -293 -480 -519 -47
-144 -48 -148 -46 -1181 l1 -974 23 -84 c87 -325 327 -563 649 -643 l87 -22
2160 0 c2036 0 2164 1 2225 17 355 97 583 326 666 669 16 67 18 152 19 1032 1
527 -3 988 -8 1025 -38 288 -245 563 -508 676 l-65 28 0 181 c-1 100 -4 213
-7 251 -21 230 -142 449 -331 600 -27 21 -92 61 -145 88 l-96 49 -6 237 c-4
130 -9 250 -13 266 -76 355 -327 608 -691 697 -37 9 -294 12 -1013 13 -529 1
-963 1 -965 -1z m1923 -607 c70 -31 116 -77 149 -147 24 -52 25 -64 26 -232
l2 -178 -1167 0 -1167 0 1 178 c2 168 3 180 27 233 43 92 127 155 224 168 22
3 447 5 945 5 l905 -2 55 -25z m556 -1155 c79 -23 143 -84 183 -173 17 -36 20
-69 21 -219 l1 -176 -1752 0 -1751 0 4 186 c3 170 5 189 26 228 45 84 118 143
199 160 66 14 3021 8 3069 -6z m601 -1173 c68 -26 127 -83 160 -155 l26 -58 0
-915 c0 -504 -3 -933 -7 -953 -16 -89 -97 -181 -187 -214 -40 -15 -232 -16
-2139 -16 -1893 0 -2099 1 -2138 16 -85 31 -153 102 -182 191 -17 52 -19 1848
-2 1908 26 93 96 167 190 202 31 11 379 14 2132 14 2065 0 2096 0 2147 -20z"/>
</g>
</svg>
