<svg width="48" height="48" viewBox="0 0 48 48" fill="none" xmlns="http://www.w3.org/2000/svg">
<path d="M20 2C20 0.8 19.2 0 18 0C16.8 0 16 0.8 16 2C16 4.6 17.8 7 20.4 7.6L26.4 9.2C26.8 9.4 27.4 9.6 27.6 10H25.6C24.6 10 24 10.6 24 11.6C24 13 25 14.2 26.4 14.6H26.8C27.4 14.8 28 15.6 28 16.4C28 18.4 26.4 20 24.4 20H21.4C19 20 16.6 20.8 14.8 22.2C13.4 23.2 11.8 24 10 24C8.8 24 8 24.8 8 26C8 27.2 8.8 28 10 28H10.6C10.2 29 10 30.2 10 31.4C10 31.6 10 31.6 10 31.8L8.2 37.2L4.2 45C3.8 45.8 4 47 4.8 47.6C5.6 48.2 6.8 48 7.4 47.2L14 40L19.8 36.6C20.2 36.4 20.4 36.2 20.4 36.2C20.6 36.2 20.8 36 21 36C21 36 21.2 36 21.8 36H22.6C26 36 28 36 30 35.4C31.2 35 32.2 34.4 33.2 33.8L39.6 31.4L38.2 35.4C37.8 36.4 38.4 37.6 39.4 38C40.4 38.4 41.6 37.8 42 36.8L44 31C44.2 30.6 44.2 30.2 44.2 29.8C44.2 27.8 42.6 26 40.4 26H38C38.2 24.8 38.2 23.2 38.2 21.2V20.2C38.2 18.8 39 17.6 40.2 17C41.4 16.4 42.2 15.2 42.2 13.8C42.2 11.8 40.6 10 38.4 10H32C31.6 8.4 30.8 7 29.4 6.2C28.6 5.6 28 4.8 28 4C28 2.8 27.2 2 26 2C24.8 2 24 2.8 24 4V4.4L21.4 3.8C20.6 3.6 20 2.8 20 2Z" fill="white"/>
</svg>
